<svg width="224" height="34" viewBox="0 0 224 34" fill="none" xmlns="http://www.w3.org/2000/svg">
<path fill-rule="evenodd" clip-rule="evenodd" d="M14.7333 0C13.4815 0 12.4667 1.01482 12.4667 2.26667V3.4H5.66667C4.41482 3.4 3.4 4.41482 3.4 5.66667V12.4667H2.26667C1.01482 12.4667 0 13.4815 0 14.7333V19.2667C0 20.5185 1.01482 21.5333 2.26667 21.5333H3.4V28.3333C3.4 29.5852 4.41482 30.6 5.66667 30.6H12.4667V31.7333C12.4667 32.9852 13.4815 34 14.7333 34H19.2667C20.5185 34 21.5333 32.9852 21.5333 31.7333V30.6H28.3333C29.5852 30.6 30.6 29.5852 30.6 28.3333V21.5333H31.7333C32.9852 21.5333 34 20.5185 34 19.2667V14.7333C34 13.4815 32.9852 12.4667 31.7333 12.4667H30.6V5.66667C30.6 4.41482 29.5852 3.4 28.3333 3.4H21.5333V2.26667C21.5333 1.01482 20.5185 0 19.2667 0H14.7333ZM10.2 21.5333C11.4518 21.5333 12.4667 22.5482 12.4667 23.8C12.4667 22.5482 13.4815 21.5333 14.7333 21.5333H19.2667C20.5185 21.5333 21.5333 22.5482 21.5333 23.8C21.5333 22.5482 22.5482 21.5333 23.8 21.5333C22.5482 21.5333 21.5333 20.5185 21.5333 19.2667V14.7333C21.5333 13.4815 22.5482 12.4667 23.8 12.4667C22.5482 12.4667 21.5333 11.4518 21.5333 10.2C21.5333 11.4518 20.5185 12.4667 19.2667 12.4667H14.7333C13.4815 12.4667 12.4667 11.4518 12.4667 10.2C12.4667 11.4518 11.4518 12.4667 10.2 12.4667C11.4518 12.4667 12.4667 13.4815 12.4667 14.7333V19.2667C12.4667 20.5185 11.4518 21.5333 10.2 21.5333Z" fill="url(#paint0_linear_549_2603)"/>
<path d="M48.1 8.648C48.172 8.648 48.384 8.648 48.736 8.648C49.088 8.648 49.504 8.648 49.984 8.648C50.472 8.648 50.964 8.652 51.46 8.66C51.964 8.66 52.4 8.664 52.768 8.672C54.88 8.712 56.596 9.076 57.916 9.764C59.244 10.444 60.216 11.416 60.832 12.68C61.456 13.936 61.768 15.452 61.768 17.228C61.768 19.084 61.436 20.664 60.772 21.968C60.116 23.272 59.108 24.272 57.748 24.968C56.396 25.656 54.676 26 52.588 26H48.1V8.648ZM51.064 11.06V23.588H52.636C53.828 23.588 54.88 23.384 55.792 22.976C56.704 22.56 57.416 21.888 57.928 20.96C58.448 20.032 58.708 18.792 58.708 17.24C58.708 15.736 58.468 14.532 57.988 13.628C57.508 12.724 56.82 12.072 55.924 11.672C55.028 11.264 53.956 11.06 52.708 11.06H51.064ZM68.2842 26.24C67.4922 26.24 66.7802 26.096 66.1482 25.808C65.5242 25.512 65.0322 25.092 64.6722 24.548C64.3202 23.996 64.1442 23.328 64.1442 22.544C64.1442 21.176 64.6362 20.144 65.6202 19.448C66.6122 18.752 68.1922 18.388 70.3602 18.356L72.2082 18.308V17.468C72.2082 16.812 72.0122 16.3 71.6202 15.932C71.2362 15.556 70.6362 15.372 69.8202 15.38C69.2202 15.388 68.6682 15.532 68.1642 15.812C67.6682 16.084 67.3402 16.544 67.1802 17.192H64.6962C64.7442 16.344 64.9882 15.636 65.4282 15.068C65.8762 14.492 66.4882 14.064 67.2642 13.784C68.0402 13.496 68.9362 13.352 69.9522 13.352C71.1362 13.352 72.1002 13.508 72.8442 13.82C73.5882 14.132 74.1362 14.584 74.4882 15.176C74.8402 15.76 75.0162 16.468 75.0162 17.3V26H72.5562L72.3282 23.768C71.8802 24.704 71.3122 25.352 70.6242 25.712C69.9442 26.064 69.1642 26.24 68.2842 26.24ZM69.2322 24.26C69.5922 24.26 69.9482 24.196 70.3002 24.068C70.6522 23.932 70.9722 23.752 71.2602 23.528C71.5482 23.296 71.7762 23.04 71.9442 22.76C72.1202 22.48 72.2082 22.188 72.2082 21.884V19.928L70.6842 19.952C69.9322 19.96 69.2762 20.04 68.7162 20.192C68.1562 20.344 67.7162 20.588 67.3962 20.924C67.0842 21.252 66.9282 21.692 66.9282 22.244C66.9282 22.876 67.1482 23.372 67.5882 23.732C68.0282 24.084 68.5762 24.26 69.2322 24.26ZM77.6539 26V24.308L84.1819 15.668H77.9539V13.592H87.6859V15.284L81.1699 23.924H87.7459V26H77.6539ZM92.4252 20.468C92.4172 21.172 92.5292 21.796 92.7612 22.34C92.9932 22.884 93.3372 23.312 93.7932 23.624C94.2492 23.928 94.8132 24.08 95.4852 24.08C96.1732 24.08 96.7692 23.928 97.2732 23.624C97.7852 23.312 98.1252 22.84 98.2932 22.208H100.969C100.825 23.072 100.481 23.804 99.9372 24.404C99.3932 25.004 98.7332 25.46 97.9572 25.772C97.1892 26.084 96.3892 26.24 95.5572 26.24C94.3572 26.24 93.3012 25.988 92.3892 25.484C91.4852 24.972 90.7772 24.244 90.2652 23.3C89.7612 22.356 89.5092 21.232 89.5092 19.928C89.5092 18.656 89.7412 17.528 90.2052 16.544C90.6692 15.552 91.3372 14.772 92.2092 14.204C93.0892 13.636 94.1452 13.352 95.3772 13.352C96.6012 13.352 97.6292 13.612 98.4612 14.132C99.3012 14.652 99.9332 15.38 100.357 16.316C100.789 17.244 101.005 18.332 101.005 19.58V20.468H92.4252ZM92.4252 18.656H98.2452C98.2452 18.056 98.1412 17.516 97.9332 17.036C97.7252 16.548 97.4052 16.164 96.9732 15.884C96.5492 15.596 96.0132 15.452 95.3652 15.452C94.7252 15.452 94.1852 15.608 93.7452 15.92C93.3052 16.232 92.9732 16.636 92.7492 17.132C92.5252 17.62 92.4172 18.128 92.4252 18.656ZM107.423 26.18C106.623 26.18 105.983 26.08 105.503 25.88C105.023 25.68 104.663 25.412 104.423 25.076C104.183 24.74 104.027 24.364 103.955 23.948C103.883 23.524 103.847 23.092 103.847 22.652V8.168H106.703V22.316C106.703 22.852 106.811 23.268 107.027 23.564C107.251 23.86 107.611 24.032 108.107 24.08L108.731 24.104V25.94C108.515 26.004 108.295 26.06 108.071 26.108C107.847 26.156 107.631 26.18 107.423 26.18Z" fill="#1D1F2C"/>
<defs>
<linearGradient id="paint0_linear_549_2603" x1="0" y1="17" x2="34" y2="17" gradientUnits="userSpaceOnUse">
<stop stop-color="#2BB2FE"/>
<stop offset="1" stop-color="#22CAAD"/>
</linearGradient>
</defs>
</svg>
