<svg xmlns="http://www.w3.org/2000/svg" width="109" height="34" fill="none" style=""><rect id="backgroundrect" width="100%" height="100%" x="0" y="0" fill="none" stroke="none"/>


<defs>
<linearGradient id="paint0_linear_504_2990" x1="0" y1="0.5" x2="1" y2="0.5">
<stop stop-color="#2BB2FE"/>
<stop offset="1" stop-color="#22CAAD"/>
</linearGradient>
</defs>
<g class="currentLayer" style=""><title>Layer 1</title><path fill-rule="evenodd" clip-rule="evenodd" d="M14.7333,0 C13.4815,0 12.4667,1.01482 12.4667,2.26667 V3.4 H5.66667 C4.41482,3.4 3.4,4.41482 3.4,5.66667 V12.4667 H2.26667 C1.01482,12.4667 0,13.4815 0,14.7333 V19.2667 C0,20.5185 1.01482,21.5333 2.26667,21.5333 H3.4 V28.3333 C3.4,29.5852 4.41482,30.6 5.66667,30.6 H12.4667 V31.7333 C12.4667,32.9852 13.4815,34 14.7333,34 H19.2667 C20.5185,34 21.5333,32.9852 21.5333,31.7333 V30.6 H28.3333 C29.5852,30.6 30.6,29.5852 30.6,28.3333 V21.5333 H31.7333 C32.9852,21.5333 34,20.5185 34,19.2667 V14.7333 C34,13.4815 32.9852,12.4667 31.7333,12.4667 H30.6 V5.66667 C30.6,4.41482 29.5852,3.4 28.3333,3.4 H21.5333 V2.26667 C21.5333,1.01482 20.5185,0 19.2667,0 H14.7333 zM10.2,21.5333 C11.4518,21.5333 12.4667,22.5482 12.4667,23.8 C12.4667,22.5482 13.4815,21.5333 14.7333,21.5333 H19.2667 C20.5185,21.5333 21.5333,22.5482 21.5333,23.8 C21.5333,22.5482 22.5482,21.5333 23.8,21.5333 C22.5482,21.5333 21.5333,20.5185 21.5333,19.2667 V14.7333 C21.5333,13.4815 22.5482,12.4667 23.8,12.4667 C22.5482,12.4667 21.5333,11.4518 21.5333,10.2 C21.5333,11.4518 20.5185,12.4667 19.2667,12.4667 H14.7333 C13.4815,12.4667 12.4667,11.4518 12.4667,10.2 C12.4667,11.4518 11.4518,12.4667 10.2,12.4667 C11.4518,12.4667 12.4667,13.4815 12.4667,14.7333 V19.2667 C12.4667,20.5185 11.4518,21.5333 10.2,21.5333 z" fill="url(#paint0_linear_504_2990)" id="svg_1" class=""/><path d="M48.1,8.648 C48.172,8.648 48.384,8.648 48.736,8.648 C49.088,8.648 49.504,8.648 49.984,8.648 C50.472,8.648 50.964,8.652000000000001 51.46,8.66 C51.964,8.66 52.4,8.664 52.768,8.672 C54.88,8.712 56.596000000000004,9.076 57.916,9.764 C59.244,10.444 60.216,11.416 60.832,12.68 C61.456,13.936 61.768,15.452 61.768,17.228 C61.768,19.084 61.436,20.664 60.772,21.968 C60.116,23.272 59.108,24.272 57.748,24.968 C56.396,25.656 54.676,26 52.588,26 H48.1 V8.648 zM51.064,11.06 V23.588 H52.636 C53.828,23.588 54.88,23.384 55.792,22.976 C56.704,22.56 57.416,21.888 57.928,20.96 C58.448,20.032 58.708,18.792 58.708,17.24 C58.708,15.736 58.468,14.532 57.988,13.628 C57.508,12.724 56.82,12.072 55.924,11.672 C55.028,11.264 53.956,11.06 52.708,11.06 H51.064 zM68.2842,26.24 C67.4922,26.24 66.7802,26.096 66.1482,25.808 C65.5242,25.512 65.0322,25.092 64.6722,24.548000000000002 C64.3202,23.996 64.1442,23.328 64.1442,22.544 C64.1442,21.176 64.6362,20.144 65.6202,19.448 C66.6122,18.752 68.1922,18.388 70.3602,18.356 L72.2082,18.308 V17.468 C72.2082,16.812 72.0122,16.3 71.6202,15.932 C71.2362,15.556000000000001 70.6362,15.372 69.8202,15.38 C69.2202,15.388 68.6682,15.532 68.1642,15.812 C67.6682,16.084 67.3402,16.544 67.1802,17.192 H64.6962 C64.7442,16.344 64.9882,15.636 65.4282,15.068 C65.8762,14.492 66.4882,14.064 67.2642,13.784 C68.0402,13.496 68.9362,13.352 69.9522,13.352 C71.1362,13.352 72.1002,13.508 72.8442,13.82 C73.5882,14.132 74.1362,14.584 74.4882,15.176 C74.8402,15.76 75.0162,16.468 75.0162,17.3 V26 H72.5562 L72.3282,23.768 C71.8802,24.704 71.3122,25.352 70.6242,25.712 C69.9442,26.064 69.1642,26.24 68.2842,26.24 zM69.2322,24.26 C69.5922,24.26 69.9482,24.196 70.3002,24.068 C70.6522,23.932 70.9722,23.752 71.2602,23.528 C71.5482,23.296 71.7762,23.04 71.9442,22.76 C72.1202,22.48 72.2082,22.188 72.2082,21.884 V19.928 L70.6842,19.952 C69.9322,19.96 69.2762,20.04 68.7162,20.192 C68.1562,20.344 67.7162,20.588 67.3962,20.924 C67.0842,21.252 66.9282,21.692 66.9282,22.244 C66.9282,22.876 67.1482,23.372 67.5882,23.732 C68.0282,24.084 68.5762,24.26 69.2322,24.26 zM77.6539,26 V24.308 L84.1819,15.668 H77.9539 V13.592 H87.6859 V15.284 L81.1699,23.924 H87.7459 V26 H77.6539 zM92.4252,20.468 C92.4172,21.172 92.5292,21.796 92.7612,22.34 C92.9932,22.884 93.3372,23.312 93.7932,23.624 C94.2492,23.928 94.8132,24.08 95.4852,24.08 C96.1732,24.08 96.7692,23.928 97.2732,23.624 C97.7852,23.312 98.1252,22.84 98.2932,22.208 H100.969 C100.825,23.072 100.481,23.804 99.9372,24.404 C99.3932,25.004 98.7332,25.46 97.9572,25.772 C97.1892,26.084 96.3892,26.24 95.5572,26.24 C94.3572,26.24 93.3012,25.988 92.3892,25.484 C91.4852,24.972 90.7772,24.244 90.2652,23.3 C89.7612,22.356 89.5092,21.232 89.5092,19.928 C89.5092,18.656 89.7412,17.528 90.2052,16.544 C90.6692,15.552 91.3372,14.772 92.2092,14.204 C93.0892,13.636 94.1452,13.352 95.3772,13.352 C96.6012,13.352 97.6292,13.612 98.4612,14.132 C99.3012,14.652000000000001 99.9332,15.38 100.357,16.316 C100.789,17.244 101.005,18.332 101.005,19.58 V20.468 H92.4252 zM92.4252,18.656 H98.2452 C98.2452,18.056 98.1412,17.516 97.9332,17.036 C97.7252,16.548000000000002 97.4052,16.164 96.9732,15.884 C96.5492,15.596 96.0132,15.452 95.3652,15.452 C94.7252,15.452 94.1852,15.608 93.7452,15.92 C93.3052,16.232 92.9732,16.636 92.7492,17.132 C92.5252,17.62 92.4172,18.128 92.4252,18.656 zM107.423,26.18 C106.623,26.18 105.983,26.08 105.503,25.88 C105.023,25.68 104.663,25.412 104.423,25.076 C104.183,24.74 104.027,24.364 103.955,23.948 C103.883,23.524 103.847,23.092 103.847,22.652 V8.168 H106.703 V22.316 C106.703,22.852 106.811,23.268 107.027,23.564 C107.251,23.86 107.611,24.032 108.107,24.08 L108.731,24.104 V25.94 C108.515,26.004 108.295,26.06 108.071,26.108 C107.847,26.156 107.631,26.18 107.423,26.18 z" fill="#1D1F2C" id="svg_2" class=""/></g></svg>